<!DOCTYPE svg PUBLIC "-//W3C//DTD SVG 20010904//EN" "http://www.w3.org/TR/2001/REC-SVG-20010904/DTD/svg10.dtd">
<svg xmlns="http://www.w3.org/2000/svg" version="1.0" width="1015px" height="668px" viewBox="0 0 10150 6680" preserveAspectRatio="xMidYMid meet">
<defs><linearGradient id="outlineGrad" x1="0%" y1="0%" x2="0%" y2="100%"><stop offset="0%" style="stop-color:#707070;stop-opacity:1" /><stop offset="100%" style="stop-color:#292929;stop-opacity:1" /></linearGradient><linearGradient id="cloudGrad" x1="0%" y1="0%" x2="0%" y2="100%"><stop offset="0%" style="stop-color:#f9f9f9;stop-opacity:1" /><stop offset="100%" style="stop-color:#d5d5d5;stop-opacity:1" /></linearGradient><linearGradient id="redGrad" x1="0%" y1="0%" x2="0%" y2="100%"><stop offset="0%" style="stop-color:#ee5f5b;stop-opacity:1" /><stop offset="100%" style="stop-color:#941f1e;stop-opacity:1" /></linearGradient></defs>
<g id="layer103" fill="url(#cloudGrad)" stroke="none">
 <path d="M1610 6109 c-228 -28 -420 -127 -600 -308 -331 -333 -502 -887 -435 -1408 50 -384 187 -691 413 -925 198 -205 402 -305 645 -315 l117 -6 0 -76 c1 -783 415 -1481 994 -1675 362 -122 770 -28 1073 247 61 55 83 68 83 47 0 -22 97 -234 152 -332 170 -300 438 -562 700 -682 394 -183 826 -148 1195 95 292 193 535 507 679 876 21 54 39 100 40 102 2 1 41 -23 88 -54 170 -113 326 -160 521 -158 148 1 239 23 380 91 256 124 471 358 630 685 92 187 140 343 201 645 4 19 11 22 48 22 55 0 177 31 265 68 105 44 206 116 311 222 235 235 385 555 457 975 24 145 24 491 0 640 -80 481 -272 841 -567 1062 -71 54 -195 115 -290 145 l-75 23 -3480 1 c-1914 1 -3509 -2 -3545 -7z" />
 </g>
<g id="layer104" fill="url(#redGrad)" stroke="none">
 <path d="M1610 6109 m3845 -439 c161 -32 283 -73 430 -146 174 -85 294 -173 446 -324 191 -190 323 -404 405 -655 30 -91 31 -101 16 -107 -9 -4 -152 -41 -317 -83 -165 -42 -307 -78 -317 -81 -13 -4 -21 10 -38 63 -93 282 -323 518 -600 617 -270 97 -501 81 -773 -55 -104 -52 -238 -137 -244 -156 -2 -6 68 -75 157 -154 89 -80 155 -146 148 -148 -30 -10 -1373 -368 -1375 -367 -3 3 239 1400 243 1405 2 2 62 -50 135 -115 72 -66 142 -127 155 -137 l24 -19 77 63 c269 216 588 361 912 414 124 21 374 13 516 -15z m1193 -2446 c-67 -384 -123 -701 -124 -703 -2 -1 -71 58 -154 133 -83 75 -154 136 -158 136 -4 0 -38 -25 -77 -56 -382 -308 -857 -467 -1267 -425 -145 14 -242 35 -380 81 -158 52 -265 105 -406 199 -314 210 -559 537 -665 889 -14 45 -24 82 -23 82 3 0 630 160 647 165 13 4 23 -14 48 -84 106 -295 364 -538 660 -620 247 -69 450 -46 706 79 100 48 245 143 245 159 0 5 -72 74 -159 152 -88 79 -157 145 -153 146 21 8 1377 370 1379 369 1 -1 -52 -317 -119 -702z" />
 </g>


</svg>